<?xml version="1.0" standalone="no"?>
<!DOCTYPE svg PUBLIC "-//W3C//DTD SVG 20010904//EN"
 "http://www.w3.org/TR/2001/REC-SVG-20010904/DTD/svg10.dtd">
<svg version="1.0" xmlns="http://www.w3.org/2000/svg"
 width="657.000000pt" height="657.000000pt" viewBox="0 0 657.000000 657.000000"
 preserveAspectRatio="xMidYMid meet">
<metadata>
Created by potrace 1.11, written by Peter Selinger 2001-2013
</metadata>
<g transform="translate(0.000000,657.000000) scale(0.100000,-0.100000)"
fill="#000000" stroke="none">
<path d="M5720 6552 c0 -4 -49 -82 -108 -173 -408 -621 -686 -871 -1182 -1063
-52 -20 -104 -41 -115 -45 -11 -5 -65 -25 -120 -46 -379 -140 -534 -215 -668
-324 -215 -175 -339 -311 -482 -526 -196 -296 -294 -587 -297 -885 0 -86 2
-119 18 -215 19 -118 109 -325 181 -415 94 -119 144 -170 230 -236 l46 -35 21
23 c12 13 57 64 101 113 202 228 477 486 660 622 l25 18 -24 65 c-13 36 -27
88 -31 115 -4 28 -9 59 -11 70 -6 30 -6 229 0 256 3 13 8 47 11 74 7 70 12 94
45 230 44 184 156 514 135 400 -2 -16 -7 -48 -10 -70 -3 -22 -8 -51 -10 -65
-20 -119 -28 -510 -12 -640 20 -167 48 -295 63 -295 13 0 291 200 404 290 115
92 242 208 276 253 22 28 24 37 15 65 -13 41 -24 136 -24 207 0 175 55 394
142 570 41 82 52 93 40 41 -26 -117 -36 -228 -34 -370 3 -131 8 -185 24 -261
l7 -35 68 104 c182 275 373 656 477 949 12 34 23 62 25 62 4 0 -1 -74 -10
-160 -6 -56 -17 -121 -28 -170 -5 -25 -12 -56 -14 -70 -11 -58 -67 -230 -110
-338 -58 -147 -108 -246 -189 -378 l-64 -104 47 5 c110 11 151 17 228 35 102
24 199 57 289 100 39 18 75 35 80 38 20 8 -72 -72 -140 -123 -192 -143 -418
-232 -596 -236 -53 -1 -59 -4 -89 -40 -89 -108 -322 -313 -568 -499 -62 -47
-112 -88 -112 -91 0 -4 21 -10 48 -15 26 -4 49 -8 52 -9 3 -1 30 -5 60 -9 30
-5 64 -10 75 -13 11 -2 101 -6 200 -7 157 -2 311 8 423 28 17 3 47 8 65 11 17
3 48 10 67 15 53 15 59 11 15 -9 -93 -41 -419 -135 -545 -156 -19 -3 -48 -8
-65 -11 -177 -31 -454 -17 -537 27 -31 17 -442 -358 -665 -606 -44 -49 -94
-105 -111 -124 l-30 -34 -44 37 c-24 20 -59 52 -78 71 -19 19 -38 35 -42 35
-11 0 -149 -167 -220 -265 -150 -209 -276 -465 -314 -640 -1 -5 -7 -30 -14
-55 -15 -56 -18 -73 -26 -130 -3 -25 -7 -52 -9 -60 -3 -8 -7 -44 -11 -80 -3
-36 -8 -66 -9 -68 -2 -2 -12 21 -23 50 -21 56 -100 220 -147 303 -64 114 -221
345 -235 345 -4 0 -14 -21 -22 -47 -17 -53 -6 -60 -98 56 -198 250 -485 514
-755 694 -119 79 -127 89 -30 37 364 -194 662 -434 883 -710 l20 -25 11 40
c49 186 59 384 27 535 -9 45 -36 116 -67 178 -100 200 -291 355 -564 457 -97
36 -284 88 -380 105 -33 5 -71 12 -84 15 -13 2 -49 7 -80 10 -31 3 -67 8 -81
10 -99 16 -522 26 -647 15 l-61 -5 62 -105 c172 -289 313 -582 414 -860 101
-278 172 -399 327 -556 255 -259 552 -365 778 -277 56 22 121 67 169 117 41
42 128 181 128 203 0 26 17 11 57 -50 93 -143 167 -306 243 -536 96 -294 98
-301 100 -396 2 -135 18 -404 25 -415 2 -3 6 -35 9 -71 4 -36 9 -76 11 -90 2
-13 6 -44 9 -69 3 -25 8 -74 12 -110 4 -36 8 -71 9 -79 3 -23 77 -49 131 -47
57 2 93 24 123 77 26 45 26 55 1 128 -76 227 -88 752 -25 1121 2 14 7 41 10
60 15 88 71 295 105 390 79 223 210 451 337 590 l60 65 54 -41 c79 -60 155
-112 197 -136 314 -181 561 -251 857 -242 128 3 135 4 264 36 369 90 746 385
1028 804 122 180 247 441 324 676 36 112 102 364 113 438 3 19 8 46 11 60 9
43 35 241 43 330 9 109 9 509 0 620 -8 83 -24 226 -32 265 -2 11 -7 40 -11 65
-56 364 -217 810 -404 1119 -28 46 -51 87 -51 91 0 9 -34 40 -43 40 -4 0 -7
-4 -7 -8z"/>
</g>
</svg>
