<?xml version="1.0" encoding="UTF-8"?>
<svg xmlns="http://www.w3.org/2000/svg" width="209" height="88" viewBox="0 0 209 88" fill="none">
  <path d="M0.335938 -0.469727H208.336V82.3966C208.336 85.1581 206.097 87.3966 203.336 87.3966H5.33593C2.57451 87.3966 0.335938 85.158 0.335938 82.3966V-0.469727Z" fill="#472145"></path>
  <path fill-rule="evenodd" clip-rule="evenodd" d="M27.7353 52.0418C27.7353 50.1307 27.7353 49.8856 26.4248 49.0035L25.9879 48.7097C25.7938 48.5133 25.7938 47.9745 26.0366 47.8271C27.153 47.4352 29.9196 46.1611 30.8906 45.4258C31.0847 45.4258 31.3269 45.524 31.4242 45.7686C31.3269 46.8958 31.3269 47.6311 31.3269 48.0722C31.3269 48.3664 31.521 48.6115 31.8611 48.6115C33.8999 47.3374 36.1809 46.1119 38.6566 46.1119C42.685 46.1119 44.3356 48.9052 44.3356 52.1892V60.6181C44.3356 64.1467 44.4329 64.6369 46.1798 64.882L47.2476 65.0288C47.5877 65.2739 47.4909 66.1069 47.1508 66.2538C45.6948 66.1561 44.287 66.1069 42.5882 66.1069C40.8408 66.1069 39.3843 66.1561 38.0738 66.2538C37.7342 66.1069 37.6374 65.2739 37.977 65.0288L38.8993 64.882C40.6954 64.5878 40.744 64.1467 40.744 60.6181V53.3164C40.744 50.5226 39.4816 48.4647 36.1809 48.4647C34.3367 48.4647 32.7348 49.2486 32.0552 50.1798C31.4242 51.0128 31.3269 51.699 31.3269 53.1204V60.6181C31.3269 64.1467 31.4242 64.5878 33.1716 64.882L34.0453 65.0288C34.3854 65.2739 34.2881 66.1069 33.9485 66.2538C32.6375 66.1561 31.2301 66.1069 29.5314 66.1069C27.784 66.1069 26.328 66.1561 24.9688 66.2538C24.6287 66.1069 24.5319 65.2739 24.8715 65.0288L25.8906 64.882C27.6867 64.6369 27.7353 64.1467 27.7353 60.6181V52.0418Z" fill="white"></path>
  <path fill-rule="evenodd" clip-rule="evenodd" d="M56.1791 58.9024C56.1791 62.2841 57.0042 64.5385 60.6936 64.5385C62.0041 64.5385 63.5569 63.9992 64.6252 63.068C65.2562 62.48 65.5957 61.7448 65.5957 60.2256V52.1886C65.5957 49.0028 65.2562 48.9046 63.7997 48.3167L63.1692 48.0716C62.8292 47.8756 62.8292 47.1894 63.2174 46.9935C65.1589 46.9443 67.8286 46.6015 68.8964 46.1113C69.1392 46.1604 69.2846 46.2587 69.3333 46.4547C69.236 47.3859 69.1878 48.9046 69.1878 50.718V58.9515C69.1878 62.8229 69.3333 64.2934 70.6925 64.2934C71.2748 64.2934 71.9057 64.1952 72.5853 64.0478C72.8767 64.2934 72.9253 65.2733 72.5366 65.4693C70.6438 65.8617 67.8286 66.3514 66.178 67.2827C65.9353 67.2827 65.693 67.1358 65.5957 66.9399V64.9305C65.5957 64.4894 65.4503 64.2443 65.1589 64.2443C63.7029 65.1751 61.3245 66.793 58.4607 66.793C54.1895 66.793 52.5875 64.6363 52.5875 60.6666V52.4823C52.5875 49.3948 52.5875 48.9537 51.131 48.3167L50.5487 48.0716C50.2573 47.8265 50.306 47.1403 50.646 46.9935C52.8789 46.9443 54.7713 46.5033 55.8396 46.1113C56.131 46.1604 56.2764 46.2587 56.3251 46.4547C56.2278 47.2877 56.1791 48.3167 56.1791 50.718V58.9024Z" fill="white"></path>
  <path fill-rule="evenodd" clip-rule="evenodd" d="M82.0515 48.8566C81.2264 48.8566 81.1778 49.0035 81.1778 50.0325V59.1972C81.1778 62.0396 81.5173 64.6369 84.7212 64.6369C85.2062 64.6369 85.6436 64.5392 86.0313 64.3918C86.4686 64.2449 87.0996 63.7056 87.245 63.7056C87.6332 63.7056 87.8278 64.2449 87.7305 64.5392C86.8568 65.5681 85.1089 66.7936 82.6338 66.7936C78.4594 66.7936 77.5857 64.4409 77.5857 61.5003V50.2776C77.5857 48.9543 77.5375 48.8566 76.5665 48.8566H75.2073C74.9159 48.6606 74.8678 48.1213 75.0619 47.8271C76.4697 47.3865 77.683 46.749 78.168 46.3084C78.7994 45.72 79.7213 44.3968 80.2068 43.4169C80.4495 43.3187 81.0323 43.3187 81.2264 43.6615V45.8669C81.2264 46.749 81.2746 46.7981 82.1001 46.7981H87.4878C88.0701 47.2392 87.9733 48.5624 87.5364 48.8566H82.0515Z" fill="white"></path>
  <path fill-rule="evenodd" clip-rule="evenodd" d="M92.9706 52.0418C92.9706 50.1307 92.9706 49.8856 91.66 49.0035L91.2232 48.7097C91.0291 48.5133 91.0291 47.9745 91.2713 47.8271C92.3878 47.4352 94.9607 46.1611 96.174 45.4258C96.4167 45.4749 96.5622 45.5731 96.5622 45.7686V48.6115C96.5622 48.8566 96.6108 49.0035 96.7081 49.0526C98.4069 47.6311 100.251 46.1119 102.047 46.1119C103.261 46.1119 104.231 46.8958 104.231 48.0722C104.231 49.6896 102.921 50.3267 102.144 50.3267C101.659 50.3267 101.416 50.1798 101.077 49.9838C100.348 49.4936 99.6206 49.1994 98.9405 49.1994C98.1641 49.1994 97.5818 49.6405 97.1936 50.1798C96.7081 50.866 96.5622 52.2869 96.5622 53.953V60.6181C96.5622 64.1467 96.6595 64.7351 98.5042 64.882L100.251 65.0288C100.591 65.2739 100.494 66.1069 100.154 66.2538C97.8727 66.1561 96.4654 66.1069 94.7666 66.1069C93.0192 66.1069 91.5627 66.1561 90.3008 66.2538C89.9608 66.1069 89.864 65.2739 90.2035 65.0288L91.1259 64.882C92.9219 64.5878 92.9706 64.1467 92.9706 60.6181V52.0418Z" fill="white"></path>
  <path fill-rule="evenodd" clip-rule="evenodd" d="M113.114 38.0746C113.114 39.8388 111.9 40.6227 110.541 40.6227C109.037 40.6227 108.066 39.4955 108.066 38.1723C108.066 36.5554 109.231 35.5259 110.687 35.5259C112.143 35.5259 113.114 36.7022 113.114 38.0746ZM109.085 52.0414C109.085 50.1303 109.085 49.8852 107.775 49.0031L107.338 48.7094C107.144 48.5129 107.144 47.9741 107.386 47.8267C108.502 47.4348 111.269 46.1607 112.386 45.4254C112.629 45.4254 112.823 45.5236 112.871 45.7196C112.774 47.4348 112.677 49.7875 112.677 51.7963V60.6177C112.677 64.1463 112.774 64.6365 114.521 64.8816L115.541 65.0284C115.881 65.2735 115.783 66.1066 115.444 66.2534C113.987 66.1557 112.58 66.1066 110.881 66.1066C109.134 66.1066 107.678 66.1557 106.318 66.2534C105.979 66.1066 105.881 65.2735 106.221 65.0284L107.24 64.8816C109.037 64.6365 109.085 64.1463 109.085 60.6177V52.0414Z" fill="white"></path>
  <path fill-rule="evenodd" clip-rule="evenodd" d="M125.54 48.8566C124.715 48.8566 124.666 49.0035 124.666 50.0325V59.1972C124.666 62.0396 125.006 64.6369 128.209 64.6369C128.695 64.6369 129.132 64.5392 129.52 64.3918C129.957 64.2449 130.588 63.7056 130.734 63.7056C131.122 63.7056 131.316 64.2449 131.219 64.5392C130.345 65.5681 128.598 66.7936 126.122 66.7936C121.948 66.7936 121.074 64.4409 121.074 61.5003V50.2776C121.074 48.9543 121.026 48.8566 120.055 48.8566H118.696C118.405 48.6606 118.356 48.1213 118.55 47.8271C119.958 47.3865 121.171 46.749 121.657 46.3084C122.288 45.72 123.21 44.3968 123.695 43.4169C123.938 43.3187 124.52 43.3187 124.715 43.6615V45.8669C124.715 46.749 124.763 46.7981 125.588 46.7981H130.976C131.559 47.2392 131.461 48.5624 131.025 48.8566H125.54Z" fill="white"></path>
  <path fill-rule="evenodd" clip-rule="evenodd" d="M140.489 38.0746C140.489 39.8388 139.275 40.6227 137.916 40.6227C136.411 40.6227 135.441 39.4955 135.441 38.1723C135.441 36.5554 136.606 35.5259 138.062 35.5259C139.518 35.5259 140.489 36.7022 140.489 38.0746ZM136.46 52.0414C136.46 50.1303 136.46 49.8852 135.15 49.0031L134.713 48.7094C134.519 48.5129 134.519 47.9741 134.761 47.8267C135.878 47.4348 138.644 46.1607 139.761 45.4254C140.004 45.4254 140.198 45.5236 140.246 45.7196C140.149 47.4348 140.052 49.7875 140.052 51.7963V60.6177C140.052 64.1463 140.149 64.6365 141.896 64.8816L142.916 65.0284C143.256 65.2735 143.158 66.1066 142.819 66.2534C141.363 66.1557 139.955 66.1066 138.256 66.1066C136.509 66.1066 135.053 66.1557 133.694 66.2534C133.354 66.1066 133.256 65.2735 133.596 65.0284L134.616 64.8816C136.412 64.6365 136.46 64.1463 136.46 60.6177V52.0414Z" fill="white"></path>
  <path fill-rule="evenodd" clip-rule="evenodd" d="M155.631 47.5819C152.428 47.5819 150.049 50.6689 150.049 56.06C150.049 60.5198 152.04 65.3224 156.311 65.3224C160.582 65.3224 161.892 60.8135 161.892 57.0398C161.892 52.8742 160.242 47.5819 155.631 47.5819ZM166.067 56.2559C166.067 62.3818 161.892 66.793 155.825 66.793C150.243 66.793 145.875 62.8229 145.875 56.697C145.875 50.522 150.486 46.1113 156.213 46.1113C161.65 46.1113 166.067 50.2278 166.067 56.2559Z" fill="white"></path>
  <path fill-rule="evenodd" clip-rule="evenodd" d="M173.816 45.9628L173.919 46.032C176.345 42.3055 179.729 38.5098 182.292 38.5098C183.625 38.5098 184.205 39.2345 184.205 40.3733C184.205 40.9251 183.932 41.9947 183.659 42.7886C183.044 44.5138 180.583 50.138 180.48 50.4141C180.344 50.7595 180.309 51.0697 180.549 51.0697C181.13 51.0697 182.77 49.9315 183.761 48.7235C184.24 48.6544 184.308 48.9305 184.308 49.2067C183.01 51.4151 180.309 53.0711 178.43 53.0711C178.122 53.0711 177.609 52.6225 177.609 52.209C177.609 51.8977 177.712 51.6567 178.43 49.9315C179.147 48.2404 180.412 44.8587 181.198 43.1335C181.472 42.5125 181.916 41.3045 181.916 40.6149C181.916 40.2004 181.882 39.7864 181.369 39.7864C180.549 39.7864 178.532 41.5115 176.653 43.8928C174.841 46.1703 173.44 48.8614 171.424 52.6571C171.253 52.9678 171.116 53.0711 170.809 53.0711C170.433 53.0711 169.51 52.9678 169.818 52.1739L173.782 41.3045C173.953 40.856 173.953 40.5111 173.679 40.5111C172.893 40.5111 171.697 41.2359 170.569 42.2363C170.296 42.2363 170.125 41.9947 170.159 41.719C171.458 39.9247 173.543 38.5098 175.251 38.5098C176.072 38.5098 176.448 39.1308 176.14 39.9247L173.816 45.9628Z" fill="white"></path>
  <path fill-rule="evenodd" clip-rule="evenodd" d="M31.0141 27.3933C31.0141 28.7125 31.0389 28.9009 31.7607 28.9636L32.1588 29.0012C32.2333 29.0518 32.2085 29.2779 32.134 29.3155C31.4246 29.2904 31.0017 29.2779 30.5038 29.2779C30.0059 29.2779 29.57 29.2904 28.7737 29.3155C28.6993 29.2779 28.6745 29.0643 28.7737 29.0012L29.2215 28.9636C29.9314 28.9009 29.9934 28.7125 29.9934 27.3933V21.7767C29.9934 21.3872 29.9934 21.3747 29.6201 21.3747H28.9356C28.4004 21.3747 27.7159 21.3997 27.4046 21.6885C27.1063 21.9651 26.9817 22.2413 26.8447 22.5556C26.7454 22.6312 26.5711 22.5681 26.5215 22.4678C26.7205 21.9025 26.9072 21.0985 26.9946 20.5953C27.0318 20.5702 27.1931 20.5582 27.2309 20.5953C27.3053 20.9978 27.7159 20.9852 28.2887 20.9852H33.3284C34.0005 20.9852 34.1127 20.9602 34.2989 20.6334C34.3614 20.6083 34.4985 20.6209 34.5233 20.671C34.3863 21.1862 34.2989 22.2037 34.3366 22.5806C34.2865 22.6814 34.075 22.6814 34.013 22.6062C33.9757 22.2919 33.8884 21.8273 33.7022 21.6885C33.4158 21.4749 32.9427 21.3747 32.2581 21.3747H31.3745C31.0017 21.3747 31.0141 21.3872 31.0141 21.8017V27.3933Z" fill="white"></path>
  <path fill-rule="evenodd" clip-rule="evenodd" d="M43.859 25.2196C43.2613 25.2196 43.2365 25.2447 43.2365 25.6216V27.3934C43.2365 28.7126 43.299 28.8885 43.9955 28.9637L44.3569 29.0013C44.4314 29.0519 44.4065 29.278 44.3316 29.3156C43.6599 29.2905 43.2365 29.278 42.7515 29.278C42.2163 29.278 41.7934 29.303 41.3074 29.3156C41.2334 29.278 41.2081 29.077 41.2831 29.0013L41.4945 28.9637C42.1915 28.8384 42.2163 28.7126 42.2163 27.3934V22.8699C42.2163 21.5507 42.129 21.3372 41.4821 21.2871L41.1585 21.2615C41.0835 21.2114 41.1088 20.9853 41.1833 20.9478C41.7934 20.9603 42.2163 20.9853 42.7515 20.9853C43.2365 20.9853 43.6599 20.9728 44.1951 20.9478C44.2695 20.9853 44.2943 21.2114 44.2194 21.2615L43.9831 21.2871C43.2613 21.3623 43.2365 21.5507 43.2365 22.8699V24.3149C43.2365 24.7044 43.2613 24.7169 43.859 24.7169H47.4178C48.0155 24.7169 48.0403 24.7044 48.0403 24.3149V22.8699C48.0403 21.5507 48.0155 21.3623 47.2813 21.2871L47.0445 21.2615C46.97 21.2114 46.9949 20.9853 47.0698 20.9478C47.6422 20.9728 48.0651 20.9853 48.5755 20.9853C49.0605 20.9853 49.4839 20.9728 50.0439 20.9478C50.1183 20.9853 50.1432 21.2114 50.0687 21.2615L49.8071 21.2871C49.0853 21.3623 49.0605 21.5507 49.0605 22.8699V27.3934C49.0605 28.7126 49.0853 28.8755 49.8071 28.9637L50.1059 29.0013C50.1809 29.0519 50.1556 29.278 50.0811 29.3156C49.4839 29.2905 49.0605 29.278 48.5755 29.278C48.0651 29.278 47.6174 29.2905 47.0698 29.3156C46.9949 29.278 46.97 29.077 47.0445 29.0013L47.2813 28.9637C48.0403 28.8384 48.0403 28.7126 48.0403 27.3934V25.6216C48.0403 25.2447 48.0155 25.2196 47.4178 25.2196H43.859Z" fill="white"></path>
  <path fill-rule="evenodd" clip-rule="evenodd" d="M58.2216 22.8699C58.2216 21.5632 58.1968 21.3748 57.4625 21.2871L57.2635 21.2615C57.1885 21.2114 57.2133 20.9853 57.2883 20.9478C57.8229 20.9728 58.2464 20.9853 58.7567 20.9853H61.0963C61.8926 20.9853 62.6268 20.9853 62.7762 20.9478C62.8512 21.1613 62.9257 22.066 62.9753 22.6188C62.9257 22.694 62.7266 22.7191 62.664 22.6439C62.4774 22.0534 62.3652 21.6134 61.7184 21.45C61.4572 21.3873 61.0586 21.3748 60.5111 21.3748H59.6155C59.2417 21.3748 59.2417 21.3999 59.2417 21.8775V24.3901C59.2417 24.742 59.2794 24.742 59.6528 24.742H60.3745C60.8973 24.742 61.2825 24.7169 61.4324 24.6668C61.5813 24.6162 61.6687 24.541 61.7308 24.2272L61.8301 23.712C61.8926 23.6363 62.1041 23.6363 62.1537 23.7245C62.1537 24.0262 62.1041 24.5159 62.1041 24.9936C62.1041 25.4457 62.1537 25.9233 62.1537 26.1995C62.1041 26.2877 61.8926 26.2877 61.8301 26.212L61.7184 25.7218C61.6687 25.4958 61.5813 25.3073 61.3326 25.2447C61.1584 25.1946 60.8596 25.1815 60.3745 25.1815H59.6528C59.2794 25.1815 59.2417 25.1946 59.2417 25.5213V27.2926C59.2417 27.9588 59.2794 28.3858 59.4785 28.5998C59.6279 28.7502 59.889 28.8885 60.9842 28.8885C61.9422 28.8885 62.3036 28.8384 62.5772 28.7001C62.801 28.5743 63.1371 28.1347 63.4608 27.4811C63.5477 27.4185 63.7219 27.456 63.7715 27.5688C63.6847 28.0089 63.3734 28.9762 63.2116 29.3156C62.0917 29.2905 60.9841 29.278 59.8766 29.278H58.7567C58.2216 29.278 57.7986 29.2905 57.0639 29.3156C56.9895 29.278 56.9646 29.077 57.0391 29.0013L57.4501 28.9637C58.159 28.901 58.2216 28.7126 58.2216 27.3934V22.8699Z" fill="white"></path>
  <path fill-rule="evenodd" clip-rule="evenodd" d="M81.5724 27.3934C81.5724 28.7126 81.5972 28.8755 82.394 28.9637L82.7301 29.0013C82.8045 29.0644 82.7797 29.278 82.7053 29.3156C81.9959 29.2905 81.5848 29.278 81.0874 29.278C80.5647 29.278 80.1169 29.2905 79.5694 29.3156C79.4944 29.278 79.4696 29.077 79.5441 29.0013L79.8057 28.9637C80.5275 28.8635 80.5523 28.7126 80.5523 27.3934V22.7566C80.5523 21.6886 80.5275 21.475 79.967 21.4124L79.5192 21.3623C79.4319 21.2871 79.4448 21.0986 79.5441 21.048C80.2038 20.9603 80.9752 20.9478 82.0083 20.9478C83.0413 20.9478 83.8128 21.0861 84.3976 21.45C84.9699 21.8144 85.3934 22.4679 85.3934 23.3345C85.3934 24.4908 84.6835 25.0688 84.1484 25.3329C83.6013 25.5965 82.9416 25.7093 82.4312 25.7093C82.3439 25.6717 82.3439 25.4833 82.4188 25.4582C83.7626 25.2071 84.2481 24.4407 84.2481 23.3476C84.2481 22.1286 83.5387 21.3372 82.2446 21.3372C81.5848 21.3372 81.5724 21.3873 81.5724 21.7893V27.3934Z" fill="white"></path>
  <path fill-rule="evenodd" clip-rule="evenodd" d="M99.8442 25.4831C99.8442 23.41 98.9358 21.1736 96.5589 21.1736C95.2648 21.1736 93.5844 22.0658 93.5844 24.8175C93.5844 26.677 94.4804 29.0893 96.9322 29.0893C98.4255 29.0893 99.8442 27.9586 99.8442 25.4831ZM92.3398 25.2194C92.3398 22.7063 94.2069 20.7842 96.7704 20.7842C99.6447 20.7842 101.089 22.8823 101.089 25.0936C101.089 27.6318 99.1721 29.4788 96.7704 29.4788C94.0078 29.4788 92.3398 27.4809 92.3398 25.2194Z" fill="white"></path>
  <path fill-rule="evenodd" clip-rule="evenodd" d="M106.95 21.249C106.876 21.1738 106.888 20.9979 106.988 20.9478C107.324 20.9728 107.884 20.9853 108.27 20.9853C108.618 20.9853 109.253 20.9728 109.688 20.9478C109.8 20.9853 109.788 21.1613 109.713 21.249L109.427 21.274C109.166 21.2996 109.016 21.3748 109.016 21.4876C109.016 21.6389 109.277 22.2795 109.663 23.1716C110.36 24.742 111.095 26.3128 111.816 27.858C112.115 27.23 112.451 26.5263 112.774 25.8226C112.886 25.584 112.973 25.3705 112.973 25.3073C112.973 25.2447 112.937 25.1314 112.874 24.981C112.438 23.9756 111.978 22.9707 111.505 21.9652C111.319 21.5758 111.132 21.3121 110.709 21.274L110.41 21.249C110.323 21.1482 110.335 20.9979 110.435 20.9478C110.796 20.9728 111.269 20.9853 111.766 20.9853C112.389 20.9853 112.849 20.9728 113.136 20.9478C113.222 20.9853 113.235 21.1482 113.16 21.249L112.837 21.274C112.351 21.3121 112.339 21.3999 112.575 21.9652C112.837 22.5807 113.185 23.3726 113.533 24.1515C113.77 23.6613 113.994 23.1842 114.268 22.5055C114.716 21.4374 114.654 21.2996 114.255 21.274L113.882 21.249C113.795 21.1232 113.82 20.9853 113.907 20.9478C114.243 20.9728 114.616 20.9853 115.077 20.9853C115.487 20.9853 115.985 20.9728 116.271 20.9478C116.358 20.9853 116.371 21.1482 116.296 21.249L115.935 21.274C115.413 21.3121 115.189 21.8775 114.915 22.3928C114.654 22.8574 114.131 23.9505 113.944 24.3901C113.882 24.5159 113.832 24.6417 113.832 24.6918C113.832 24.742 113.857 24.8427 113.919 24.9936C114.342 25.9609 114.778 26.9032 115.189 27.858C115.574 26.9789 115.948 26.0993 116.309 25.2071C116.557 24.6036 117.217 22.9331 117.304 22.7065C117.466 22.2544 117.678 21.7141 117.678 21.5632C117.678 21.3873 117.528 21.2871 117.267 21.274L116.906 21.249C116.807 21.1357 116.819 20.9979 116.919 20.9478C117.391 20.9728 117.727 20.9853 118.113 20.9853C118.586 20.9853 118.947 20.9728 119.27 20.9478C119.37 20.9853 119.383 21.1482 119.296 21.249L119.059 21.274C118.437 21.3372 118.325 21.7141 117.578 23.4603L116.67 25.584C116.122 26.8656 115.624 28.0966 115.114 29.4414C115.077 29.4664 115.027 29.4789 114.965 29.4789C114.902 29.4789 114.84 29.4664 114.791 29.4414C114.392 28.3231 113.671 26.7523 113.284 25.8732C112.837 26.7899 112.09 28.3983 111.729 29.4414C111.691 29.4664 111.642 29.4789 111.58 29.4789C111.518 29.4789 111.455 29.4664 111.393 29.4414C111.182 28.9136 110.696 27.7828 110.534 27.4184C109.738 25.6717 108.967 23.9255 108.157 22.1787C107.921 21.6635 107.772 21.3247 107.249 21.274L106.95 21.249Z" fill="white"></path>
  <path fill-rule="evenodd" clip-rule="evenodd" d="M126.505 22.8699C126.505 21.5632 126.48 21.3748 125.746 21.2871L125.547 21.2615C125.472 21.2114 125.497 20.9853 125.572 20.9478C126.107 20.9728 126.53 20.9853 127.04 20.9853H129.38C130.176 20.9853 130.91 20.9853 131.059 20.9478C131.134 21.1613 131.209 22.066 131.258 22.6188C131.209 22.694 131.01 22.7191 130.947 22.6439C130.761 22.0534 130.648 21.6134 130.002 21.45C129.74 21.3873 129.342 21.3748 128.794 21.3748H127.899C127.525 21.3748 127.525 21.3999 127.525 21.8775V24.3901C127.525 24.742 127.563 24.742 127.936 24.742H128.658C129.18 24.742 129.566 24.7169 129.716 24.6668C129.865 24.6162 129.952 24.541 130.014 24.2272L130.113 23.712C130.176 23.6363 130.387 23.6363 130.437 23.7245C130.437 24.0262 130.387 24.5159 130.387 24.9936C130.387 25.4457 130.437 25.9233 130.437 26.1995C130.387 26.2877 130.176 26.2877 130.113 26.212L130.002 25.7218C129.952 25.4958 129.865 25.3073 129.616 25.2447C129.442 25.1946 129.143 25.1815 128.658 25.1815H127.936C127.563 25.1815 127.525 25.1946 127.525 25.5213V27.2926C127.525 27.9588 127.563 28.3858 127.762 28.5998C127.911 28.7502 128.172 28.8885 129.267 28.8885C130.225 28.8885 130.587 28.8384 130.86 28.7001C131.084 28.5743 131.42 28.1347 131.744 27.4811C131.831 27.4185 132.005 27.456 132.055 27.5688C131.968 28.0089 131.657 28.9762 131.495 29.3156C130.375 29.2905 129.267 29.278 128.16 29.278H127.04C126.505 29.278 126.082 29.2905 125.347 29.3156C125.273 29.278 125.248 29.077 125.322 29.0013L125.733 28.9637C126.442 28.901 126.505 28.7126 126.505 27.3934V22.8699Z" fill="white"></path>
  <path fill-rule="evenodd" clip-rule="evenodd" d="M140.768 24.6793C140.768 24.9054 140.768 25.0437 140.805 25.0938C140.843 25.1314 141.029 25.1565 141.664 25.1565C142.112 25.1565 142.585 25.1068 142.946 24.8302C143.282 24.5665 143.568 24.1265 143.568 23.2719C143.568 22.2795 142.958 21.3372 141.577 21.3372C140.805 21.3372 140.768 21.3873 140.768 21.7392V24.6793ZM139.748 22.8824C139.748 21.6886 139.71 21.475 139.2 21.4124L138.802 21.3623C138.715 21.2996 138.715 21.0986 138.814 21.048C139.511 20.9853 140.37 20.9478 141.589 20.9478C142.361 20.9478 143.095 21.0104 143.667 21.3247C144.265 21.6389 144.7 22.2038 144.7 23.0834C144.7 24.2773 143.767 24.9304 143.145 25.1815C143.083 25.2572 143.145 25.383 143.207 25.4833C144.202 27.1042 144.862 28.1091 145.709 28.8259C145.92 29.0143 146.231 29.1522 146.567 29.1772C146.629 29.2023 146.642 29.303 146.579 29.3536C146.468 29.3912 146.269 29.4158 146.032 29.4158C144.974 29.4158 144.339 29.102 143.456 27.833C143.132 27.3683 142.622 26.5012 142.237 25.9354C142.05 25.6592 141.85 25.5339 141.353 25.5339C140.793 25.5339 140.768 25.5464 140.768 25.81V27.3934C140.768 28.7126 140.793 28.8635 141.514 28.9637L141.776 29.0013C141.85 29.0644 141.826 29.278 141.751 29.3156C141.191 29.2905 140.768 29.278 140.27 29.278C139.748 29.278 139.3 29.2905 138.715 29.3156C138.64 29.278 138.615 29.0895 138.69 29.0013L139.001 28.9637C139.723 28.8755 139.748 28.7126 139.748 27.3934V22.8824Z" fill="white"></path>
  <path fill-rule="evenodd" clip-rule="evenodd" d="M169.321 25.4831C169.321 23.41 168.412 21.1736 166.035 21.1736C164.741 21.1736 163.061 22.0658 163.061 24.8175C163.061 26.677 163.957 29.0893 166.409 29.0893C167.902 29.0893 169.321 27.9586 169.321 25.4831ZM161.816 25.2194C161.816 22.7063 163.683 20.7842 166.247 20.7842C169.121 20.7842 170.565 22.8823 170.565 25.0936C170.565 27.6318 168.649 29.4788 166.247 29.4788C163.484 29.4788 161.816 27.4809 161.816 25.2194Z" fill="white"></path>
  <path fill-rule="evenodd" clip-rule="evenodd" d="M179.725 24.5284C179.725 24.8678 179.762 24.8678 180.136 24.8678H180.982C181.492 24.8678 181.89 24.8427 182.04 24.7926C182.177 24.742 182.276 24.6793 182.35 24.3525L182.463 23.8498C182.525 23.7746 182.737 23.7746 182.786 23.8498C182.786 24.1515 182.737 24.6542 182.737 25.1194C182.737 25.5715 182.786 26.0486 182.786 26.3378C182.737 26.4135 182.55 26.4135 182.463 26.3378L182.338 25.8476C182.276 25.6216 182.177 25.4457 181.94 25.3705C181.766 25.3204 181.455 25.3073 180.982 25.3073H180.136C179.762 25.3073 179.725 25.3204 179.725 25.6467V27.3934C179.725 28.7126 179.75 28.901 180.484 28.9637L180.907 29.0013C180.982 29.0519 180.957 29.278 180.883 29.3156C180.148 29.2905 179.725 29.278 179.227 29.278C178.679 29.278 178.256 29.2905 177.672 29.3156C177.597 29.278 177.572 29.077 177.647 29.0013L177.958 28.9637C178.679 28.8755 178.705 28.7126 178.705 27.3934V22.8699C178.705 21.5507 178.679 21.3748 177.958 21.2871L177.759 21.2615C177.684 21.2114 177.709 20.9853 177.783 20.9478C178.307 20.9728 178.73 20.9853 179.227 20.9853H181.517C182.313 20.9853 183.036 20.9853 183.197 20.9478C183.197 21.5257 183.209 22.1286 183.235 22.6063C183.197 22.6815 183.023 22.7191 182.936 22.6439C182.836 22.0785 182.687 21.6134 182.065 21.45C181.79 21.3748 181.38 21.3748 180.857 21.3748H180.098C179.725 21.3748 179.725 21.3999 179.725 21.8775V24.5284Z" fill="white"></path>
</svg>
